<svg viewBox="0 0 50 50" xmlns="http://www.w3.org/2000/svg">
  <path
   fill='white' d="m6 5a1.0001 1.0001 0 0 0 -.9941406 1.1054688l2.7988281 26.5917972c.0004877.004634.0014523.009041.0019531.013672l1.0117188 9.603515c.1595922 1.518364 1.4551666 2.685547 2.9824216 2.685547h26.398438c1.527255 0 2.824783-1.167183 2.984375-2.685547l1.011718-9.617187 2.798829-26.5917972a1.0001 1.0001 0 0 0 -.994141-1.1054688zm1.1113281 2h35.7773439l-2 19h-4.228516l.259766-.605469a1.0001 1.0001 0 0 0 -.525391-1.314453l-7-3a1.0001 1.0001 0 0 0 -.390625-.080078 1.0001 1.0001 0 0 0 -.923828.605469l-1.882812 4.394531h-3.197266v-3a1.0001 1.0001 0 0 0 -1-1h-8a1.0001 1.0001 0 0 0 -1 1v3h-3.8886719zm22.4140629 16.3125 5.162109 2.212891-.203125.474609h-6.111328zm-14.525391.6875h6v2h-6zm-5.6777344 4h31.3574224l-.472657 4.488281c-.11429 1.086123-.943643 2.218668-2.289062 3.085938-1.34542.867269-3.154149 1.425781-4.917969 1.425781h-16c-1.76382 0-3.572549-.558512-4.917969-1.425781-1.33813-.862572-2.163785-1.987629-2.285156-3.06836zm3.6777344 2v1c0 .552.448 1 1 1h8c.552 0 1-.448 1-1v-1zm12.800781 0 6.808594 2.919922c.12.05.260625.080078.390625.080078.39 0 .759922-.229375.919922-.609375l1.019531-2.390625h-2.169922l-.298828.689453-1.601562-.689453zm-15.5625 6.703125c.243326.193962.494505.381745.759766.552734 1.69208 1.090731 3.827773 1.744141 6.001953 1.744141h16c2.17418 0 4.309873-.65341 6.001953-1.744141.265689-.171265.51804-.358423.761719-.552734l-.56836 5.400391c-.054407.517636-.475348.896484-.996093.896484h-26.398438c-.520745 0-.939733-.378848-.99414-.896484z"/>
</svg>
