<svg stroke='#fff' enable-background="new 0 0 32 32" viewBox="0 0 32 32" xmlns="http://www.w3.org/2000/svg"><path  d="m26.297 6.139h-3.354v-.505c0-.314.311-.569.694-.569h1.965c.383 0 .694.255.694.569v.505z"/><path d="m21.209 16.347c.239.1.479.17.72.237v-2.546c0-.834.406-1.63 1.087-2.129.399-.293.566-.806.414-1.274-.041-.128-.062-.265-.062-.408 0-.428.214-.822.573-1.055.142-.092.228-.25.228-.419v-1.961h.929v1.974c0 .167.083.322.222.415.347.233.554.624.554 1.046 0 .134-.022.267-.066.396-.16.473.002.991.404 1.29.677.502 1.064 1.276 1.064 2.125v2.518c.341-.014.679 0 1 .056v-2.574c0-1.168-.535-2.235-1.469-2.928-.053-.04-.073-.104-.053-.166.079-.232.119-.474.119-.718 0-.662-.285-1.282-.775-1.707v-2.227c0-.276-.224-.5-.5-.5h-1.929c-.276 0-.5.224-.5.5v2.21c-.506.426-.801 1.053-.801 1.725 0 .247.037.486.11.714.02.06-.002.123-.055.161-.937.687-1.495 1.784-1.495 2.936v2.221c.091.019.184.047.281.088z"/><path d="m17.12 6.139h-3.354v-.505c0-.314.311-.569.694-.569h1.965c.383 0 .694.255.694.569v.505z"/><path d="m12.752 16.463v-2.425c0-.834.406-1.63 1.089-2.13.398-.293.563-.806.412-1.273-.041-.128-.062-.265-.062-.408 0-.427.215-.822.573-1.056.142-.092.228-.25.228-.419v-1.96h.929v1.974c0 .167.083.322.222.415.347.233.554.624.554 1.046 0 .134-.022.267-.066.396-.16.473.002.991.404 1.29.677.502 1.064 1.276 1.064 2.125v2.398c.229.045.439.113.606.225.149.1.275.219.394.342v-2.966c0-1.168-.535-2.235-1.469-2.928-.053-.04-.073-.104-.053-.166.079-.232.119-.474.119-.718 0-.662-.285-1.282-.775-1.707v-2.226c0-.276-.224-.5-.5-.5h-1.929c-.276 0-.5.224-.5.5v2.21c-.506.427-.801 1.054-.801 1.725 0 .247.037.486.11.714.02.06-.002.124-.053.161-.938.686-1.497 1.784-1.497 2.936v2.425z"/><path d="m7.944 6.169h-3.354v-.505c0-.314.311-.569.694-.569h1.965c.383 0 .694.255.694.569v.505z"/><path d="m3.575 16.66v-2.592c0-.834.406-1.63 1.088-2.129.398-.292.564-.804.414-1.277-.042-.125-.062-.262-.062-.404 0-.427.215-.822.573-1.056.142-.092.228-.25.228-.419v-1.96h.929v1.974c0 .167.083.323.222.416.345.23.553.621.553 1.044 0 .133-.022.266-.066.396-.16.473.003.992.405 1.291.676.502 1.063 1.276 1.063 2.125v2.696c.165.014.33.013.495.032s.337.066.505.128v-2.856c0-1.151-.549-2.246-1.468-2.927-.054-.041-.074-.107-.054-.167.079-.233.12-.475.12-.718 0-.663-.285-1.283-.775-1.708v-2.227c0-.276-.224-.5-.5-.5h-1.93c-.276 0-.5.224-.5.5v2.21c-.505.427-.8 1.053-.8 1.725 0 .249.038.489.11.712.02.061-.002.125-.054.163-.937.687-1.496 1.784-1.496 2.936v2.539c.333.026.667.043 1 .053z"/><path d="m29.5 28h-28c-.276 0-.5-.224-.5-.5v-11c0-.276.224-.5.5-.5h28c.276 0 .5.224.5.5v11c0 .276-.224.5-.5.5zm-27.5-1h27v-10h-27z"/><path d="m17.77 22.415h-3.79c-.729 0-1.322-.593-1.322-1.322v-.947c0-.729.593-1.322 1.322-1.322h3.79c.729 0 1.322.593 1.322 1.322v.947c0 .729-.593 1.322-1.322 1.322zm-3.791-2.592c-.178 0-.322.145-.322.322v.947c0 .178.145.322.322.322h3.79c.178 0 .322-.145.322-.322v-.947c0-.178-.145-.322-.322-.322z"/></svg>
