<svg fill='white' viewBox="0 0 32 32" xmlns="http://www.w3.org/2000/svg"><path d="m5.39 29h4.61v-2h-8v-17h22v-9a1 1 0 0 0 -1-1h-22a1 1 0 0 0 -1 1v27a1 1 0 0 0 1 1h2.28l.77 2.32a1 1 0 0 0 .95.68h8v-2h-7.28zm-3.39-27h20v6h-20z"/><path d="m22 12a10 10 0 1 0 10 10 10 10 0 0 0 -10-10zm-6.31 5.1 3.9 3.9h-5.52a8 8 0 0 1 1.62-3.9zm-1.62 5.9h5.52l-3.9 3.9a8 8 0 0 1 -1.62-3.9zm6.93 6.93a8 8 0 0 1 -3.9-1.62l3.9-3.9zm0-10.34-3.9-3.9a8 8 0 0 1 3.9-1.62zm8.93 1.41h-5.52l3.9-3.9a8 8 0 0 1 1.62 3.9zm-6.93-6.93a8 8 0 0 1 3.9 1.62l-3.9 3.9zm0 15.86v-5.52l3.9 3.9a8 8 0 0 1 -3.9 1.62zm5.31-3-3.9-3.93h5.52a8 8 0 0 1 -1.62 3.9z"/><path d="m5 13h2v2h-2z"/><path d="m7 15h2v2h-2z"/><path d="m5 22h2v2h-2z"/></svg>
